<svg width="51" height="38" viewBox="0 0 51 38" version="1.1" xmlns="http://www.w3.org/2000/svg" xmlns:xlink="http://www.w3.org/1999/xlink">
<title>&#226;&#128;&#156;</title>
<desc>Created using Figma</desc>
<g id="Canvas" transform="translate(-9075 3873)">
<g id="&#226;&#128;&#156;">
<use xlink:href="#path0_fill" transform="matrix(-1 1.22465e-16 -1.22465e-16 -1 9126 -3835)"/>
</g>
</g>
<defs>
<path id="path0_fill" d="M 24.1265 26.6C 24.1265 20.425 19.7073 15.4375 12.7799 15.4375C 11.5855 15.4375 10.1522 16.0312 9.79391 16.2687C 10.1522 14.0125 11.1077 11.7563 13.377 10.0938C 15.4075 8.3125 18.7518 7.125 23.5293 7.125L 23.5293 0C 8.71897 0.11875 0 6.29375 0 23.5125C 0 32.1812 5.13583 38 12.7799 38C 19.1101 38 24.1265 32.8937 24.1265 26.6ZM 51 26.6C 51 20.425 46.5808 15.4375 39.6534 15.4375C 38.3396 15.4375 36.9063 16.0312 36.6674 16.2687C 36.9063 14.0125 37.9813 11.7563 40.1311 10.0938C 42.281 8.3125 45.6253 7.125 50.4028 7.125L 50.4028 0C 35.4731 0.11875 26.8735 6.29375 26.8735 23.5125C 26.8735 32.1812 32.0094 38 39.6534 38C 45.9836 38 51 32.8937 51 26.6Z"/>
</defs>
</svg>
